<svg xmlns="http://www.w3.org/2000/svg" width="101" height="20" viewBox="0 0 101 20" fill="none">
<path d="M19.2158 8.97262L15.6963 12.0062L16.7686 16.5429C16.8277 16.7892 16.8125 17.0475 16.7248 17.2851C16.6371 17.5227 16.4809 17.7291 16.2758 17.8781C16.0708 18.027 15.8261 18.112 15.5728 18.1221C15.3195 18.1323 15.0688 18.0672 14.8525 17.9351L10.9029 15.507L6.95097 17.9351C6.73466 18.0664 6.4843 18.1309 6.23139 18.1204C5.97849 18.1098 5.73436 18.0248 5.52975 17.8759C5.32513 17.7271 5.16918 17.5211 5.08153 17.2839C4.99388 17.0467 4.97845 16.7889 5.03719 16.5429L6.11335 12.0062L2.59393 8.97262C2.40255 8.80739 2.26414 8.58951 2.19598 8.34617C2.12783 8.10284 2.13295 7.84484 2.21071 7.60439C2.28847 7.36395 2.43542 7.15172 2.63321 6.9942C2.831 6.83669 3.07086 6.74087 3.32284 6.71871L7.93719 6.34684L9.71723 2.04371C9.81358 1.8092 9.97757 1.6086 10.1883 1.46742C10.3991 1.32624 10.6472 1.25085 10.9009 1.25085C11.1547 1.25085 11.4027 1.32624 11.6135 1.46742C11.8243 1.6086 11.9883 1.8092 12.0846 2.04371L13.8639 6.34684L18.4782 6.71871C18.7307 6.74004 18.9713 6.83533 19.1698 6.99263C19.3683 7.14992 19.5159 7.36224 19.5942 7.60298C19.6724 7.84371 19.6778 8.10216 19.6096 8.34594C19.5415 8.58972 19.4028 8.80799 19.2111 8.9734L19.2158 8.97262Z" fill="#FFD80D"/>
<path d="M39.2373 8.97262L35.7179 12.0062L36.7901 16.5429C36.8493 16.7892 36.8341 17.0475 36.7464 17.2851C36.6586 17.5227 36.5024 17.7291 36.2974 17.8781C36.0923 18.027 35.8477 18.112 35.5943 18.1221C35.341 18.1323 35.0903 18.0672 34.874 17.9351L30.9244 15.507L26.9725 17.9351C26.7562 18.0664 26.5058 18.1309 26.2529 18.1204C26 18.1098 25.7559 18.0248 25.5513 17.8759C25.3467 17.7271 25.1907 17.5211 25.1031 17.2839C25.0154 17.0467 25 16.7889 25.0587 16.5429L26.1349 12.0062L22.6155 8.97262C22.4241 8.80739 22.2857 8.58951 22.2175 8.34617C22.1494 8.10284 22.1545 7.84484 22.2323 7.60439C22.31 7.36395 22.457 7.15172 22.6548 6.9942C22.8525 6.83669 23.0924 6.74087 23.3444 6.71871L27.9587 6.34684L29.7388 2.04371C29.8351 1.8092 29.9991 1.6086 30.2099 1.46742C30.4207 1.32624 30.6687 1.25085 30.9225 1.25085C31.1762 1.25085 31.4243 1.32624 31.6351 1.46742C31.8458 1.6086 32.0098 1.8092 32.1062 2.04371L33.8854 6.34684L38.4998 6.71871C38.7523 6.74004 38.9928 6.83533 39.1913 6.99263C39.3898 7.14992 39.5375 7.36224 39.6157 7.60298C39.694 7.84371 39.6993 8.10216 39.6312 8.34594C39.563 8.58972 39.4244 8.80799 39.2326 8.9734L39.2373 8.97262Z" fill="#FFD80D"/>
<path d="M59.2589 8.97262L55.7395 12.0062L56.8117 16.5429C56.8709 16.7892 56.8557 17.0475 56.768 17.2851C56.6803 17.5227 56.524 17.7291 56.319 17.8781C56.1139 18.027 55.8693 18.112 55.6159 18.1221C55.3626 18.1323 55.1119 18.0672 54.8956 17.9351L50.946 15.507L46.9941 17.9351C46.7778 18.0664 46.5274 18.1309 46.2745 18.1204C46.0216 18.1098 45.7775 18.0248 45.5729 17.8759C45.3683 17.7271 45.2123 17.5211 45.1247 17.2839C45.037 17.0467 45.0216 16.7889 45.0803 16.5429L46.1565 12.0062L42.6371 8.97262C42.4457 8.80739 42.3073 8.58951 42.2391 8.34617C42.171 8.10284 42.1761 7.84484 42.2539 7.60439C42.3316 7.36395 42.4786 7.15172 42.6764 6.9942C42.8741 6.83669 43.114 6.74087 43.366 6.71871L47.9803 6.34684L49.7604 2.04371C49.8567 1.8092 50.0207 1.6086 50.2315 1.46742C50.4423 1.32624 50.6903 1.25085 50.9441 1.25085C51.1979 1.25085 51.4459 1.32624 51.6567 1.46742C51.8674 1.6086 52.0314 1.8092 52.1278 2.04371L53.907 6.34684L58.5214 6.71871C58.7739 6.74004 59.0144 6.83533 59.2129 6.99263C59.4114 7.14992 59.5591 7.36224 59.6373 7.60298C59.7156 7.84371 59.7209 8.10216 59.6528 8.34594C59.5846 8.58972 59.446 8.80799 59.2542 8.9734L59.2589 8.97262Z" fill="#FFD80D"/>
<path d="M79.2805 8.97262L75.7611 12.0062L76.8333 16.5429C76.8925 16.7892 76.8773 17.0475 76.7896 17.2851C76.7019 17.5227 76.5456 17.7291 76.3406 17.8781C76.1355 18.027 75.8909 18.112 75.6376 18.1221C75.3842 18.1323 75.1335 18.0672 74.9172 17.9351L70.9676 15.507L67.0157 17.9351C66.7994 18.0664 66.5491 18.1309 66.2962 18.1204C66.0433 18.1098 65.7991 18.0248 65.5945 17.8759C65.3899 17.7271 65.2339 17.5211 65.1463 17.2839C65.0586 17.0467 65.0432 16.7889 65.1019 16.5429L66.1781 12.0062L62.6587 8.97262C62.4673 8.80739 62.3289 8.58951 62.2607 8.34617C62.1926 8.10284 62.1977 7.84484 62.2755 7.60439C62.3532 7.36395 62.5002 7.15172 62.698 6.9942C62.8958 6.83669 63.1356 6.74087 63.3876 6.71871L68.0019 6.34684L69.782 2.04371C69.8783 1.8092 70.0423 1.6086 70.2531 1.46742C70.4639 1.32624 70.7119 1.25085 70.9657 1.25085C71.2195 1.25085 71.4675 1.32624 71.6783 1.46742C71.889 1.6086 72.053 1.8092 72.1494 2.04371L73.9286 6.34684L78.543 6.71871C78.7955 6.74004 79.036 6.83533 79.2345 6.99263C79.4331 7.14992 79.5807 7.36224 79.6589 7.60298C79.7372 7.84371 79.7426 8.10216 79.6744 8.34594C79.6063 8.58972 79.4676 8.80799 79.2758 8.9734L79.2805 8.97262Z" fill="#FFD80D"/>
<path d="M99.3021 8.97262L95.7827 12.0062L96.8549 16.5429C96.9141 16.7892 96.8989 17.0475 96.8112 17.2851C96.7235 17.5227 96.5672 17.7291 96.3622 17.8781C96.1571 18.027 95.9125 18.112 95.6592 18.1221C95.4058 18.1323 95.1552 18.0672 94.9388 17.9351L90.9892 15.507L87.0373 17.9351C86.821 18.0664 86.5707 18.1309 86.3178 18.1204C86.0649 18.1098 85.8207 18.0248 85.6161 17.8759C85.4115 17.7271 85.2555 17.5211 85.1679 17.2839C85.0802 17.0467 85.0648 16.7889 85.1235 16.5429L86.1997 12.0062L82.6803 8.97262C82.4889 8.80739 82.3505 8.58951 82.2823 8.34617C82.2142 8.10284 82.2193 7.84484 82.2971 7.60439C82.3748 7.36395 82.5218 7.15172 82.7196 6.9942C82.9174 6.83669 83.1572 6.74087 83.4092 6.71871L88.0236 6.34684L89.8036 2.04371C89.8999 1.8092 90.0639 1.6086 90.2747 1.46742C90.4855 1.32624 90.7335 1.25085 90.9873 1.25085C91.2411 1.25085 91.4891 1.32624 91.6999 1.46742C91.9107 1.6086 92.0746 1.8092 92.171 2.04371L93.9503 6.34684L98.5646 6.71871C98.8171 6.74004 99.0576 6.83533 99.2562 6.99263C99.4547 7.14992 99.6023 7.36224 99.6805 7.60298C99.7588 7.84371 99.7642 8.10216 99.696 8.34594C99.6279 8.58972 99.4892 8.80799 99.2974 8.9734L99.3021 8.97262Z" fill="#FFD80D"/>
</svg>